<svg width="14.575195" height="12.604980" viewBox="0 0 14.5752 12.605" fill="none" xmlns="http://www.w3.org/2000/svg" xmlns:xlink="http://www.w3.org/1999/xlink">
	<desc>
			Created with Pixso.
	</desc>
	<defs>
		<clipPath id="clip2_6906">
			<rect id="Icons-dribbble" width="14.575342" height="12.604972" fill="white" fill-opacity="0"/>
		</clipPath>
	</defs>
	<rect id="Icons-dribbble" width="14.575342" height="12.604972" fill="#FFFFFF" fill-opacity="0"/>
	<g clip-path="url(#clip2_6906)">
		<path id="Vector" d="M12.13 6.07C12.08 5.25 11.75 4.45 11.18 3.79C11 3.95 10.82 4.1 10.62 4.25C10.01 4.68 9.34 5.04 8.61 5.3C8.71 5.48 8.8 5.66 8.88 5.83L8.88 5.83C8.91 5.88 8.93 5.93 8.95 5.97C9.87 5.88 10.84 5.92 11.78 6.03C11.9 6.04 12.02 6.06 12.13 6.07ZM6.43 2.16C7.03 2.88 7.57 3.63 8.07 4.4C8.81 4.15 9.43 3.83 9.92 3.47C10.09 3.35 10.25 3.22 10.4 3.08C9.53 2.44 8.42 2.09 7.28 2.1C7 2.1 6.71 2.12 6.43 2.16L6.43 2.16ZM2.58 5.25C2.99 5.24 3.4 5.22 3.82 5.18C4.81 5.1 5.8 4.96 6.77 4.75C6.26 3.99 5.72 3.25 5.13 2.53C4.5 2.8 3.95 3.18 3.51 3.65C3.07 4.12 2.75 4.66 2.58 5.25ZM3.51 8.94C3.74 8.64 4.05 8.31 4.46 7.94C5.35 7.16 6.39 6.55 7.59 6.22L7.63 6.21C7.53 6.02 7.44 5.85 7.34 5.68C6.23 5.97 5.05 6.14 3.88 6.23C3.31 6.28 2.8 6.3 2.42 6.3C2.42 7.26 2.81 8.2 3.51 8.94L3.51 8.94ZM9.11 10.19C8.87 9.17 8.54 8.17 8.12 7.19C6.9 7.58 5.93 8.13 5.18 8.8C4.88 9.06 4.61 9.36 4.38 9.67C5.22 10.21 6.24 10.5 7.28 10.5C7.91 10.5 8.53 10.4 9.11 10.19L9.11 10.19ZM10.25 9.63C11.19 9 11.84 8.09 12.06 7.07C11.85 7.03 11.59 6.98 11.3 6.95C10.66 6.87 10.01 6.86 9.37 6.93C9.73 7.81 10.02 8.71 10.25 9.63L10.25 9.63ZM7.28 11.55C3.93 11.55 1.21 9.2 1.21 6.3C1.21 3.4 3.93 1.05 7.28 1.05C10.64 1.05 13.36 3.4 13.36 6.3C13.36 9.2 10.64 11.55 7.28 11.55Z" fill="#2B2B2B" fill-opacity="1.000000" fill-rule="nonzero"/>
	</g>
</svg>
