<svg width="24.986328" height="21.608398" viewBox="0 0 24.9863 21.6084" fill="none" xmlns="http://www.w3.org/2000/svg" xmlns:xlink="http://www.w3.org/1999/xlink">
	<desc>
			Created with Pixso.
	</desc>
	<defs>
		<clipPath id="clip2_6946">
			<rect id="Icons-instagram" width="14.575342" height="12.604972" transform="translate(5.397461 4.608398)" fill="white" fill-opacity="0"/>
		</clipPath>
	</defs>
	<ellipse id="Ellipse 9" cx="12.493164" cy="10.804199" rx="12.493151" ry="10.804261" fill="#FFB400" fill-opacity="1.000000"/>
	<rect id="Icons-instagram" width="14.000147" height="11.999991" transform="translate(5.397461 4.608398)" fill="#FFFFFF" fill-opacity="0"/>
	<rect id="Icons-instagram" width="14.575342" height="12.604972" transform="translate(5.397461 4.608398)" fill="#FFFFFF" fill-opacity="0"/>
	<rect id="Icons-instagram" width="14.575342" height="12.604972" transform="translate(5.397461 4.608398)" fill="#FFFFFF" fill-opacity="0"/>
	<g clip-path="url(#clip2_6946)">
		<path id="Vector" d="M12.68 5.65C14.33 5.65 14.54 5.66 15.18 5.69C15.83 5.71 16.27 5.8 16.66 5.93C17.06 6.06 17.4 6.24 17.73 6.54C18.04 6.8 18.28 7.12 18.43 7.47C18.58 7.8 18.69 8.18 18.72 8.74C18.75 9.3 18.75 9.48 18.75 10.91C18.75 12.33 18.75 12.51 18.72 13.07C18.69 13.63 18.58 14.01 18.43 14.35C18.28 14.7 18.04 15.01 17.73 15.28C17.43 15.54 17.06 15.75 16.66 15.88C16.27 16.01 15.83 16.1 15.18 16.13C14.54 16.15 14.33 16.16 12.68 16.16C11.03 16.16 10.82 16.15 10.18 16.13C9.53 16.1 9.09 16.01 8.7 15.88C8.3 15.75 7.93 15.54 7.63 15.28C7.32 15.01 7.08 14.7 6.93 14.35C6.78 14.01 6.67 13.63 6.64 13.07C6.62 12.51 6.61 12.33 6.61 10.91C6.61 9.48 6.61 9.3 6.64 8.74C6.67 8.18 6.78 7.8 6.93 7.47C7.08 7.12 7.32 6.8 7.63 6.54C7.93 6.27 8.3 6.06 8.7 5.93C9.09 5.8 9.53 5.71 10.18 5.69C10.82 5.66 11.03 5.65 12.68 5.65ZM12.68 8.28C11.87 8.28 11.1 8.56 10.53 9.05C9.96 9.54 9.64 10.21 9.64 10.91C9.64 11.6 9.96 12.27 10.53 12.76C11.1 13.26 11.87 13.53 12.68 13.53C13.49 13.53 14.26 13.26 14.83 12.76C15.4 12.27 15.72 11.6 15.72 10.91C15.72 10.21 15.4 9.54 14.83 9.05C14.26 8.56 13.49 8.28 12.68 8.28ZM16.63 8.15C16.63 7.97 16.55 7.81 16.41 7.68C16.26 7.56 16.07 7.49 15.87 7.49C15.67 7.49 15.47 7.56 15.33 7.68C15.19 7.81 15.11 7.97 15.11 8.15C15.11 8.32 15.19 8.49 15.33 8.61C15.47 8.74 15.67 8.81 15.87 8.81C16.07 8.81 16.26 8.74 16.41 8.61C16.55 8.49 16.63 8.32 16.63 8.15ZM12.68 9.33C13.16 9.33 13.63 9.5 13.97 9.79C14.31 10.09 14.5 10.49 14.5 10.91C14.5 11.32 14.31 11.72 13.97 12.02C13.63 12.32 13.16 12.48 12.68 12.48C12.2 12.48 11.73 12.32 11.39 12.02C11.05 11.72 10.86 11.32 10.86 10.91C10.86 10.49 11.05 10.09 11.39 9.79C11.73 9.5 12.2 9.33 12.68 9.33Z" fill="#2B2B2B" fill-opacity="1.000000" fill-rule="nonzero"/>
	</g>
</svg>
