<svg width="24.986328" height="21.608398" viewBox="0 0 24.9863 21.6084" fill="none" xmlns="http://www.w3.org/2000/svg" xmlns:xlink="http://www.w3.org/1999/xlink">
	<desc>
			Created with Pixso.
	</desc>
	<defs>
		<clipPath id="clip2_6926">
			<rect id="Icons-linkedin" width="14.575342" height="12.604972" transform="translate(5.205566 4.501953)" fill="white" fill-opacity="0"/>
		</clipPath>
	</defs>
	<ellipse id="Ellipse 18" cx="12.493164" cy="10.804199" rx="12.493151" ry="10.804261" fill="#FFB400" fill-opacity="1.000000"/>
	<rect id="Icons-linkedin" width="14.575342" height="12.604972" transform="translate(5.205566 4.501953)" fill="#FFFFFF" fill-opacity="0"/>
	<rect id="Icons-linkedin" width="14.575342" height="12.604972" transform="translate(5.205566 4.501953)" fill="#FFFFFF" fill-opacity="0"/>
	<rect id="Icons-linkedin" width="14.575342" height="12.604972" transform="translate(5.205566 4.501953)" fill="#FFFFFF" fill-opacity="0"/>
	<g clip-path="url(#clip2_6926)">
		<path id="Vector" d="M9.42 7.12C9.42 7.4 9.29 7.67 9.06 7.87C8.83 8.06 8.52 8.17 8.2 8.17C7.88 8.17 7.57 8.06 7.34 7.87C7.11 7.67 6.99 7.4 6.99 7.12C6.99 6.84 7.11 6.58 7.34 6.38C7.57 6.18 7.88 6.07 8.2 6.07C8.52 6.07 8.83 6.18 9.06 6.38C9.29 6.58 9.42 6.84 9.42 7.12ZM9.45 8.95L7.02 8.95L7.02 15.53L9.45 15.53L9.45 8.95ZM13.29 8.95L10.87 8.95L10.87 15.53L13.27 15.53L13.27 12.08C13.27 10.15 16.16 9.97 16.16 12.08L16.16 15.53L18.56 15.53L18.56 11.36C18.56 8.12 14.27 8.24 13.27 9.83L13.29 8.95Z" fill="#2B2B2B" fill-opacity="1.000000" fill-rule="nonzero"/>
	</g>
</svg>
