<svg width="24.986328" height="21.608398" viewBox="0 0 24.9863 21.6084" fill="none" xmlns="http://www.w3.org/2000/svg" xmlns:xlink="http://www.w3.org/1999/xlink">
	<desc>
			Created with Pixso.
	</desc>
	<defs>
		<clipPath id="clip2_6936">
			<rect id="Icons-twitter" width="14.575342" height="12.604972" transform="translate(5.205566 4.501953)" fill="white" fill-opacity="0"/>
		</clipPath>
	</defs>
	<ellipse id="Ellipse 9" cx="12.493164" cy="10.804199" rx="12.493151" ry="10.804261" fill="#FFB400" fill-opacity="1.000000"/>
	<rect id="Icons-twitter" width="14.575342" height="12.604972" transform="translate(5.205566 4.501953)" fill="#FFFFFF" fill-opacity="0"/>
	<rect id="Icons-twitter" width="14.575342" height="12.604972" transform="translate(5.205566 4.501953)" fill="#FFFFFF" fill-opacity="0"/>
	<rect id="Icons-twitter" width="14.575342" height="12.604972" transform="translate(5.205566 4.501953)" fill="#FFFFFF" fill-opacity="0"/>
	<g clip-path="url(#clip2_6936)">
		<path id="Vector" d="M18.66 7.47C18.2 7.64 17.7 7.76 17.2 7.81C17.73 7.54 18.13 7.11 18.32 6.6C17.82 6.85 17.27 7.03 16.71 7.13C16.32 6.78 15.82 6.54 15.26 6.46C14.71 6.39 14.14 6.47 13.65 6.69C13.16 6.92 12.77 7.29 12.54 7.73C12.31 8.17 12.25 8.66 12.38 9.13C11.37 9.09 10.38 8.86 9.48 8.47C8.58 8.07 7.78 7.52 7.14 6.84C6.92 7.17 6.8 7.56 6.8 7.94C6.8 8.7 7.25 9.38 7.93 9.77C7.53 9.76 7.13 9.67 6.78 9.5L6.78 9.52C6.78 10.03 6.98 10.52 7.35 10.92C7.72 11.31 8.24 11.58 8.82 11.68C8.44 11.77 8.05 11.78 7.67 11.72C7.83 12.15 8.15 12.53 8.57 12.81C9 13.08 9.51 13.23 10.04 13.24C9.51 13.6 8.91 13.86 8.27 14.02C7.62 14.18 6.95 14.22 6.28 14.15C7.44 14.8 8.79 15.14 10.17 15.14C14.85 15.14 17.4 11.79 17.4 8.89C17.4 8.79 17.4 8.7 17.39 8.61C17.89 8.29 18.32 7.91 18.66 7.47L18.66 7.47Z" fill="#2B2B2B" fill-opacity="1.000000" fill-rule="nonzero"/>
	</g>
</svg>
